/* XPM */
static char *xmonad_16[] = {
/* columns rows colors chars-per-pixel */
"16 16 3 1 ",
"  c #3D3846",
". c #FD4D5E",
"X c None",
/* pixels */
"X....XXXXXXX   X",
"X.....XXXXX    X",
"XX....XXXX    XX",
"XXX....XXXX  XXX",
"XXXX....XXXX XXX",
"XXXX....XXXXXXXX",
"XXXXX....XXXXXXX",
"XXXXXX....XXXXXX",
"XXXXXX.....XXXXX",
"XXXXX......XXXXX",
"XXXX........XXXX",
"XXX....XX....XXX",
"XXX...XXXX....XX",
"XX....XXXX....XX",
"X....XXXXXX....X",
"....XXXXXXXX...."
};
